# xmcd
#
# Track frame offsets: 
#        150
#        12639
#        21948
#        32539
#        43870
#        53885
#        67171
#        80415
#        91339
#        103962
#        114950
#        126126
#        136628
#        150085
#        161503
#
# Disc length: 2298 seconds
#
# Revision: 7
# Processed by: cddbd v1.5.2PL0 Copyright (c) Steve Scherf et al.
# Submitted via: ExactAudioCopy v0.99pb5
#
DISCID=bb08f80f
DTITLE=Various Artist - Classic Country - TL 626-29 - Stars - CD 1
DYEAR=2002
DGENRE=Country
TTITLE0=Johnny Cash - I walk the line
TTITLE1=Elvis Presley - Don't be cruel
TTITLE2=Jim Reeves - He'll have to go
TTITLE3=Don Gibson - Oh lonesome me
TTITLE4=Conway Twitty - it's only make believe
TTITLE5=Hank Locklin - Please help me, I'm falling
TTITLE6=Jerry Lee Lewis - You win again
TTITLE7=Ferlin Husky And His Hush Puppies - Gone
TTITLE8=George Jones - White lightning
TTITLE9=Faron Young - Hello walls
TTITLE10=Marty Robbins - Singing the blues
TTITLE11=Leroy Van Dyke - Walk on by
TTITLE12=Claude King - Wolverton mountain
TTITLE13=Johnny Horton - The battle of New Orleans
TTITLE14=Everly Brothers - Cathy's clown
EXTD=YEAR: 2002
EXTT0=
EXTT1=
EXTT2=
EXTT3=
EXTT4=
EXTT5=
EXTT6=
EXTT7=
EXTT8=
EXTT9=
EXTT10=
EXTT11=
EXTT12=
EXTT13=
EXTT14=
PLAYORDER=
